<?xml version="1.0" encoding="UTF-8" standalone="no"?>
<svg width="35px" height="35px" viewBox="0 0 35 35" version="1.1" xmlns="http://www.w3.org/2000/svg" xmlns:xlink="http://www.w3.org/1999/xlink" xmlns:sketch="http://www.bohemiancoding.com/sketch/ns">
    <!-- Generator: Sketch 3.3.3 (12081) - http://www.bohemiancoding.com/sketch -->
    <title>Group Copy 4</title>
    <desc>Created with Sketch.</desc>
    <defs></defs>
    <g id="Page-1" stroke="none" stroke-width="1" fill="none" fill-rule="evenodd" sketch:type="MSPage">
        <g id="perfil-local" sketch:type="MSArtboardGroup" transform="translate(-140.000000, -14.000000)">
            <g id="web" sketch:type="MSLayerGroup">
                <g id="header" sketch:type="MSShapeGroup">
                    <g id="Logotop" transform="translate(140.000000, 14.000000)">
                        <g id="logo">
                            <g id="Group-Copy-4">
                                <g id="Group">
                                    <path d="M26.58005,0.2883465 C30.86125,0.2883465 34.3658,3.81363771 34.36545,8.11982336 L34.3658,26.4314104 C34.3651,30.7375961 30.86265,34.2621831 26.5811,34.2621831 L8.3783,34.2621831 C4.09675,34.2621831 0.59255,30.7368919 0.59185,26.4303542 L0.59185,8.11911921 C0.59185,3.8125815 4.0957,0.289050643 8.37655,0.2883465 L26.58005,0.2883465 L26.58005,0.2883465 Z" id="Shape" fill="#EF8102"></path>
                                    <path d="M25.4485,2.40077507 C29.19735,2.40077507 32.26615,5.48773736 32.2658,9.25842236 L32.26615,25.2928114 C32.26545,29.0638485 29.1984,32.1501066 25.4492,32.1501066 L9.50985,32.1501066 C5.76065,32.1501066 2.6922,29.0631444 2.69185,25.2921073 L2.69185,9.25736614 C2.69185,5.48632907 5.75995,2.40077507 9.5088,2.400423 L25.4485,2.40077507 L25.4485,2.40077507 Z" id="Shape" stroke="#FFFFFF" stroke-width="2" opacity="0.5"></path>
                                    <g transform="translate(8.750000, 5.633143)" id="Shape">
                                        <path d="M0.0245,0.203849357 L7.80185,0.203849357 C9.2442,0.203849357 10.58015,0.396432429 11.809,0.781950643 C13.03715,1.16746886 14.10255,1.73430386 15.0045,2.48280771 C15.90575,3.23131157 16.611,4.15549907 17.11745,5.25466607 C17.6246,6.35488929 17.8787,7.61847364 17.8787,9.04753157 C17.8787,10.1815536 17.72085,11.1451731 17.40515,11.9387421 C17.0891,12.7323111 16.7398,13.3903326 16.3569,13.9110463 C15.90575,14.501118 15.3986,14.9996511 14.83545,15.4077019 L19.0624,22.8906281 L10.60885,22.8906281 L7.22715,17.1427099 L7.22715,22.8906281 L0.0245,22.8906281 L0.0245,0.203849357 L0.0245,0.203849357 Z" fill="#FFFFFF"></path>
                                        <path d="M13.4155,12.4657931 C14.13685,11.5701234 14.49735,10.4075835 14.49735,8.97922971 C14.49735,7.98145929 14.30555,7.10867421 13.92265,6.36017036 C13.5387,5.61201857 13.01475,4.98251486 12.34975,4.47236336 C11.6851,3.96185979 10.9011,3.57669364 9.99985,3.31616079 C9.09825,3.05492379 8.11755,2.92465736 7.05845,2.92465736 L3.40585,2.92465736 L3.40585,20.1701721 L4.2854,20.1701721 L4.2854,14.9996511 L7.05845,14.9996511 C7.93695,14.9996511 8.79375,14.9095209 9.6278,14.727852 L12.8408,20.1701721 L13.8887,20.1701721 L10.50735,14.4557008 C11.72465,14.0247654 12.6938,13.3618149 13.4155,12.4657931 L13.4155,12.4657931 Z M7.05845,14.1835496 L4.2854,14.1835496 L4.2854,3.74075893 L7.05845,3.74075893 C9.1091,3.74075893 10.71525,4.194579 11.87655,5.101515 C13.03715,6.00880307 13.6185,7.30125729 13.6185,8.97922971 C13.6185,10.6575542 13.0375,11.9443753 11.87655,12.840045 C10.71525,13.7360668 9.1091,14.1835496 7.05845,14.1835496 L7.05845,14.1835496 Z" fill="#EF8102"></path>
                                        <path d="M7.2268,11.3602888 L7.59885,11.3602888 C8.45495,11.3602888 9.1819,11.1680578 9.77935,10.7821875 C10.37715,10.3966693 10.67605,9.75061821 10.67605,8.84333014 C10.67605,7.93674621 10.37715,7.29034307 9.77935,6.90447279 C9.1819,6.51895457 8.45495,6.32601943 7.59885,6.32601943 L7.2268,6.32601943 L7.2268,11.3602888 L7.2268,11.3602888 Z" fill="#EF8102"></path>
                                    </g>
                                    <path d="M17.21965,14.0275819 C23.84095,14.0275819 29.9705,13.2924568 34.9804,12.0436594 L34.9804,8.13989143 C34.98075,3.68301921 31.3537,0.034503 26.922,0.034503 L8.0815,0.034503 C3.6505,0.0348550714 0.02345,3.68161093 0.02345,8.13953936 L0.02345,12.1809673 C4.9266,13.3459716 10.8458,14.0275819 17.21965,14.0275819 L17.21965,14.0275819 Z" id="Shape" opacity="0.3" fill="#FFFFFF"></path>
                                </g>
                            </g>
                        </g>
                    </g>
                </g>
            </g>
        </g>
    </g>
</svg>