<?xml version="1.0" encoding="UTF-8" standalone="no"?>
<svg width="17px" height="16px" viewBox="0 0 17 16" version="1.1" xmlns="http://www.w3.org/2000/svg" xmlns:xlink="http://www.w3.org/1999/xlink" xmlns:sketch="http://www.bohemiancoding.com/sketch/ns">
    <!-- Generator: Sketch 3.3.3 (12081) - http://www.bohemiancoding.com/sketch -->
    <title>Shape</title>
    <desc>Created with Sketch.</desc>
    <defs></defs>
    <g id="Page-1" stroke="none" stroke-width="1" fill="none" fill-rule="evenodd" sketch:type="MSPage">
        <g id="redes-sociales-" sketch:type="MSLayerGroup" transform="translate(-40.000000, 0.000000)" fill-opacity="0.87" fill="#1B1E24">
            <g id="Shape-+-Shape-+-Shape" transform="translate(40.727273, 0.000000)" sketch:type="MSShapeGroup">
                <path d="M13,0 C13.8263889,0 14.5329861,0.293402778 15.1197917,0.880208333 C15.7065972,1.46701389 16,2.17361111 16,3 L16,13 C16,13.8263889 15.7065972,14.5329861 15.1197917,15.1197917 C14.5329861,15.7065972 13.8263889,16 13,16 L11.0416667,16 L11.0416667,9.80208333 L13.1145833,9.80208333 L13.4270833,7.38541667 L11.0416667,7.38541667 L11.0416667,5.84375 C11.0416667,5.45486111 11.1232639,5.16319444 11.2864583,4.96875 C11.4496528,4.77430556 11.7673611,4.67708333 12.2395833,4.67708333 L13.5104167,4.66666667 L13.5104167,2.51041667 C13.0729167,2.44791667 12.4548611,2.41666667 11.65625,2.41666667 C10.7118056,2.41666667 9.95659722,2.69444444 9.390625,3.25 C8.82465278,3.80555556 8.54166667,4.59027778 8.54166667,5.60416667 L8.54166667,7.38541667 L6.45833333,7.38541667 L6.45833333,9.80208333 L8.54166667,9.80208333 L8.54166667,16 L3,16 C2.17361111,16 1.46701389,15.7065972 0.880208333,15.1197917 C0.293402778,14.5329861 0,13.8263889 0,13 L0,3 C0,2.17361111 0.293402778,1.46701389 0.880208333,0.880208333 C1.46701389,0.293402778 2.17361111,0 3,0 L13,0 L13,0 Z" id="Shape"></path>
            </g>
        </g>
    </g>
</svg>