<?xml version="1.0" encoding="UTF-8" standalone="no"?>
<svg width="17px" height="16px" viewBox="0 0 17 16" version="1.1" xmlns="http://www.w3.org/2000/svg" xmlns:xlink="http://www.w3.org/1999/xlink" xmlns:sketch="http://www.bohemiancoding.com/sketch/ns">
    <!-- Generator: Sketch 3.3.3 (12081) - http://www.bohemiancoding.com/sketch -->
    <title>Shape</title>
    <desc>Created with Sketch.</desc>
    <defs></defs>
    <g id="Page-1" stroke="none" stroke-width="1" fill="none" fill-rule="evenodd" sketch:type="MSPage">
        <g id="redes-sociales-" sketch:type="MSLayerGroup" transform="translate(-85.000000, 0.000000)" fill-opacity="0.87" fill="#1B1E24">
            <g id="Shape-+-Shape-+-Shape" transform="translate(40.727273, 0.000000)" sketch:type="MSShapeGroup">
                <path d="M52.999053,11.3541667 C52.999053,11.8819444 52.795928,12.2725694 52.389678,12.5260417 C51.983428,12.7795139 51.499053,12.90625 50.936553,12.90625 C50.6518308,12.90625 50.3723169,12.8732639 50.0980114,12.8072917 C49.8237058,12.7413194 49.561553,12.6423611 49.311553,12.5104167 C49.061553,12.3784722 48.8601641,12.1944444 48.7073864,11.9583333 C48.5546086,11.7222222 48.4782197,11.4513889 48.4782197,11.1458333 C48.4782197,10.8263889 48.5650253,10.5486111 48.7386364,10.3125 C48.9122475,10.0763889 49.139678,9.89756944 49.420928,9.77604167 C49.702178,9.65451389 49.9869003,9.56770833 50.2750947,9.515625 C50.5632891,9.46354167 50.8566919,9.4375 51.155303,9.4375 C51.2941919,9.4375 51.4018308,9.44444444 51.4782197,9.45833333 C51.4921086,9.46527778 51.5719697,9.52256944 51.717803,9.63020833 C51.8636364,9.73784722 51.9539141,9.80381944 51.9886364,9.828125 C52.0233586,9.85243056 52.1032197,9.91493056 52.2282197,10.015625 C52.3532197,10.1163194 52.4382891,10.1927083 52.483428,10.2447917 C52.5285669,10.296875 52.5945391,10.375 52.6813447,10.4791667 C52.7681503,10.5833333 52.827178,10.6736111 52.858428,10.75 C52.889678,10.8263889 52.920928,10.9184028 52.952178,11.0260417 C52.983428,11.1336806 52.999053,11.2430556 52.999053,11.3541667 L52.999053,11.3541667 Z M52.2282197,5.67708333 C52.2282197,6.09375 52.1136364,6.43923611 51.8844697,6.71354167 C51.655303,6.98784722 51.3358586,7.125 50.9261364,7.125 C50.5580808,7.125 50.2351641,6.97743056 49.9573864,6.68229167 C49.6796086,6.38715278 49.4799558,6.05208333 49.358428,5.67708333 C49.2369003,5.30208333 49.1761364,4.93402778 49.1761364,4.57291667 C49.1761364,4.14930556 49.2872475,3.78819444 49.5094697,3.48958333 C49.7316919,3.19097222 50.0511364,3.04166667 50.467803,3.04166667 C50.8358586,3.04166667 51.1605114,3.19791667 51.4417614,3.51041667 C51.7230114,3.82291667 51.9244003,4.17361111 52.045928,4.5625 C52.1674558,4.95138889 52.2282197,5.32291667 52.2282197,5.67708333 L52.2282197,5.67708333 Z M53.3323864,3 L54.249053,2.33333333 L51.4886364,2.33333333 C50.8983586,2.33333333 50.3393308,2.44444444 49.811553,2.66666667 C49.2837753,2.88888889 48.8410669,3.22916667 48.483428,3.6875 C48.1257891,4.14583333 47.9469697,4.67708333 47.9469697,5.28125 C47.9469697,5.92708333 48.170928,6.46354167 48.6188447,6.890625 C49.0667614,7.31770833 49.6171086,7.53125 50.2698864,7.53125 C50.4226641,7.53125 50.5719697,7.52083333 50.717803,7.5 C50.6275253,7.70138889 50.5823864,7.88888889 50.5823864,8.0625 C50.5823864,8.36805556 50.7212753,8.69444444 50.999053,9.04166667 C49.7837753,9.125 48.8914141,9.34375 48.3219697,9.69791667 C47.9955808,9.89930556 47.733428,10.1527778 47.5355114,10.4583333 C47.3375947,10.7638889 47.2386364,11.09375 47.2386364,11.4479167 C47.2386364,11.7465278 47.3028725,12.015625 47.4313447,12.2552083 C47.5598169,12.4947917 47.7282197,12.6909722 47.936553,12.84375 C48.1448864,12.9965278 48.3844697,13.125 48.655303,13.2291667 C48.9261364,13.3333333 49.1952336,13.40625 49.4625947,13.4479167 C49.7299558,13.4895833 49.9955808,13.5104167 50.2594697,13.5104167 C50.6761364,13.5104167 51.0945391,13.4565972 51.514678,13.3489583 C51.9348169,13.2413194 52.3289141,13.0815972 52.6969697,12.8697917 C53.0650253,12.6579861 53.3636364,12.3715278 53.592803,12.0104167 C53.8219697,11.6493056 53.936553,11.2430556 53.936553,10.7916667 C53.936553,10.4513889 53.8671086,10.140625 53.7282197,9.859375 C53.5893308,9.578125 53.4191919,9.34722222 53.217803,9.16666667 C53.0164141,8.98611111 52.8150253,8.82118056 52.6136364,8.671875 C52.4122475,8.52256944 52.2421086,8.36979167 52.1032197,8.21354167 C51.9643308,8.05729167 51.8948864,7.90277778 51.8948864,7.75 C51.8948864,7.59722222 51.9487058,7.44965278 52.0563447,7.30729167 C52.1639836,7.16493056 52.2941919,7.02777778 52.4469697,6.89583333 C52.5997475,6.76388889 52.7525253,6.61805556 52.905303,6.45833333 C53.0580808,6.29861111 53.1882891,6.09201389 53.295928,5.83854167 C53.4035669,5.58506944 53.4573864,5.29861111 53.4573864,4.97916667 C53.4573864,4.5625 53.3792614,4.21701389 53.2230114,3.94270833 C53.0667614,3.66840278 52.8150253,3.35416667 52.467803,3 L53.3323864,3 L53.3323864,3 Z M56.3636364,7.66666667 L57.6969697,7.66666667 L57.6969697,7 L56.3636364,7 L56.3636364,5.66666667 L55.6969697,5.66666667 L55.6969697,7 L54.3636364,7 L54.3636364,7.66666667 L55.6969697,7.66666667 L55.6969697,9.33333333 L56.3636364,9.33333333 L56.3636364,7.66666667 L56.3636364,7.66666667 Z M60.3636364,3 L60.3636364,13 C60.3636364,13.8263889 60.0702336,14.5329861 59.483428,15.1197917 C58.8966225,15.7065972 58.1900253,16 57.3636364,16 L47.3636364,16 C46.5372475,16 45.8306503,15.7065972 45.2438447,15.1197917 C44.6570391,14.5329861 44.3636364,13.8263889 44.3636364,13 L44.3636364,3 C44.3636364,2.17361111 44.6570391,1.46701389 45.2438447,0.880208333 C45.8306503,0.293402778 46.5372475,0 47.3636364,0 L57.3636364,0 C58.1900253,0 58.8966225,0.293402778 59.483428,0.880208333 C60.0702336,1.46701389 60.3636364,2.17361111 60.3636364,3 L60.3636364,3 Z" id="Shape"></path>
            </g>
        </g>
    </g>
</svg>