<?xml version="1.0" encoding="UTF-8" standalone="no"?>
<svg width="16px" height="17px" viewBox="0 0 16 17" version="1.1" xmlns="http://www.w3.org/2000/svg" xmlns:xlink="http://www.w3.org/1999/xlink" xmlns:sketch="http://www.bohemiancoding.com/sketch/ns">
    <!-- Generator: Sketch 3.3.3 (12081) - http://www.bohemiancoding.com/sketch -->
    <title>Shape</title>
    <desc>Created with Sketch.</desc>
    <defs></defs>
    <g id="Page-1" stroke="none" stroke-width="1" fill="none" fill-rule="evenodd" sketch:type="MSPage">
        <g id="redes-sociales-" sketch:type="MSLayerGroup" transform="translate(0.000000, -1.000000)" fill-opacity="0.87" fill="#1B1E24">
            <path d="M12.6666667,10.7878788 C13.5902778,10.7878788 14.3767361,11.1125316 15.0260417,11.7618371 C15.6753472,12.4111427 16,13.197601 16,14.1212121 C16,15.0448232 15.6753472,15.8312816 15.0260417,16.4805871 C14.3767361,17.1298927 13.5902778,17.4545455 12.6666667,17.4545455 C11.7430556,17.4545455 10.9565972,17.1298927 10.3072917,16.4805871 C9.65798611,15.8312816 9.33333333,15.0448232 9.33333333,14.1212121 C9.33333333,14.0378788 9.34027778,13.9198232 9.35416667,13.7670455 L5.60416667,11.8920455 C4.96527778,12.4892677 4.20833333,12.7878788 3.33333333,12.7878788 C2.40972222,12.7878788 1.62326389,12.463226 0.973958333,11.8139205 C0.324652778,11.1646149 0,10.3781566 0,9.45454545 C0,8.53093434 0.324652778,7.74447601 0.973958333,7.09517045 C1.62326389,6.4458649 2.40972222,6.12121212 3.33333333,6.12121212 C4.20833333,6.12121212 4.96527778,6.41982323 5.60416667,7.01704545 L9.35416667,5.14204545 C9.34027778,4.98926768 9.33333333,4.87121212 9.33333333,4.78787879 C9.33333333,3.86426768 9.65798611,3.07780934 10.3072917,2.42850379 C10.9565972,1.77919823 11.7430556,1.45454545 12.6666667,1.45454545 C13.5902778,1.45454545 14.3767361,1.77919823 15.0260417,2.42850379 C15.6753472,3.07780934 16,3.86426768 16,4.78787879 C16,5.7114899 15.6753472,6.49794823 15.0260417,7.14725379 C14.3767361,7.79655934 13.5902778,8.12121212 12.6666667,8.12121212 C11.7916667,8.12121212 11.0347222,7.82260101 10.3958333,7.22537879 L6.64583333,9.10037879 C6.65972222,9.25315657 6.66666667,9.37121212 6.66666667,9.45454545 C6.66666667,9.53787879 6.65972222,9.65593434 6.64583333,9.80871212 L10.3958333,11.6837121 C11.0347222,11.0864899 11.7916667,10.7878788 12.6666667,10.7878788 L12.6666667,10.7878788 Z" id="Shape" sketch:type="MSShapeGroup"></path>
        </g>
    </g>
</svg>