<?xml version="1.0" encoding="UTF-8" standalone="no"?>
<svg width="19px" height="16px" viewBox="0 0 19 16" version="1.1" xmlns="http://www.w3.org/2000/svg" xmlns:xlink="http://www.w3.org/1999/xlink" xmlns:sketch="http://www.bohemiancoding.com/sketch/ns">
    <!-- Generator: Sketch 3.3.3 (12081) - http://www.bohemiancoding.com/sketch -->
    <title>Shape</title>
    <desc>Created with Sketch.</desc>
    <defs></defs>
    <g id="Page-1" stroke="none" stroke-width="1" fill="none" fill-rule="evenodd" sketch:type="MSPage">
        <g id="redes-sociales-" sketch:type="MSLayerGroup" transform="translate(-18.000000, 0.000000)" fill-opacity="0.87" fill="#1B1E24">
            <path d="M36.0909091,6.68431002 L32.2832168,10.2533081 L33.1853147,15.2942659 C33.1923077,15.3413148 33.1958042,15.4085276 33.1958042,15.4959042 C33.1958042,15.637051 33.1590909,15.7563537 33.0856643,15.8538122 C33.0122378,15.9512707 32.9055944,16 32.7657343,16 C32.6328671,16 32.493007,15.9596723 32.3461538,15.879017 L27.6363636,13.4996849 L22.9265734,15.879017 C22.7727273,15.9596723 22.6328671,16 22.506993,16 C22.3601399,16 22.25,15.9512707 22.1765734,15.8538122 C22.1031469,15.7563537 22.0664336,15.637051 22.0664336,15.4959042 C22.0664336,15.4555766 22.0734266,15.3883638 22.0874126,15.2942659 L22.9895105,10.2533081 L19.1713287,6.68431002 C18.9965035,6.50283554 18.9090909,6.34152489 18.9090909,6.20037807 C18.9090909,5.95169082 19.1048951,5.79710145 19.4965035,5.73660996 L24.7622378,5.00063012 L27.1223776,0.413358538 C27.2552448,0.137786179 27.4265734,0 27.6363636,0 C27.8461538,0 28.0174825,0.137786179 28.1503497,0.413358538 L30.5104895,5.00063012 L35.7762238,5.73660996 C36.1678322,5.79710145 36.3636364,5.95169082 36.3636364,6.20037807 C36.3636364,6.34824617 36.2727273,6.50955682 36.0909091,6.68431002 Z" id="Shape" sketch:type="MSShapeGroup"></path>
        </g>
    </g>
</svg>