<?xml version="1.0" encoding="UTF-8" standalone="no"?>
<svg width="17px" height="16px" viewBox="0 0 17 16" version="1.1" xmlns="http://www.w3.org/2000/svg" xmlns:xlink="http://www.w3.org/1999/xlink" xmlns:sketch="http://www.bohemiancoding.com/sketch/ns">
    <!-- Generator: Sketch 3.3.3 (12081) - http://www.bohemiancoding.com/sketch -->
    <title>Shape</title>
    <desc>Created with Sketch.</desc>
    <defs></defs>
    <g id="Page-1" stroke="none" stroke-width="1" fill="none" fill-rule="evenodd" sketch:type="MSPage">
        <g id="redes-sociales-" sketch:type="MSLayerGroup" transform="translate(-63.000000, 0.000000)" fill-opacity="0.87" fill="#1B1E24">
            <g id="Shape-+-Shape-+-Shape" transform="translate(40.727273, 0.000000)" sketch:type="MSShapeGroup">
                <path d="M35.8787879,5.02083333 C35.489899,5.19444444 35.0697601,5.3125 34.6183712,5.375 C35.0905934,5.09722222 35.4135101,4.69097222 35.5871212,4.15625 C35.1357323,4.42013889 34.6704545,4.59722222 34.1912879,4.6875 C33.7676768,4.22916667 33.2364268,4 32.5975379,4 C31.9933712,4 31.4777462,4.21354167 31.0506629,4.640625 C30.6235795,5.06770833 30.4100379,5.58333333 30.4100379,6.1875 C30.4100379,6.38888889 30.427399,6.55555556 30.4621212,6.6875 C29.5662879,6.63888889 28.7260101,6.41319444 27.9412879,6.01041667 C27.1565657,5.60763889 26.489899,5.06944444 25.9412879,4.39583333 C25.739899,4.74305556 25.6392045,5.11111111 25.6392045,5.5 C25.6392045,6.29166667 25.9551768,6.89930556 26.5871212,7.32291667 C26.2607323,7.31597222 25.9135101,7.22569444 25.5454545,7.05208333 L25.5454545,7.07291667 C25.5454545,7.59375 25.7190657,8.05729167 26.0662879,8.46354167 C26.4135101,8.86979167 26.8405934,9.12152778 27.3475379,9.21875 C27.146149,9.27430556 26.9690657,9.30208333 26.8162879,9.30208333 C26.7260101,9.30208333 26.5905934,9.28819444 26.4100379,9.26041667 C26.5558712,9.69791667 26.8145518,10.0590278 27.1860795,10.34375 C27.5576073,10.6284722 27.9794823,10.7743056 28.4517045,10.78125 C27.646149,11.40625 26.739899,11.71875 25.7329545,11.71875 C25.552399,11.71875 25.3787879,11.7083333 25.2121212,11.6875 C26.239899,12.3402778 27.3579545,12.6666667 28.5662879,12.6666667 C29.3440657,12.6666667 30.0732323,12.5434028 30.7537879,12.296875 C31.4343434,12.0503472 32.0176768,11.7204861 32.5037879,11.3072917 C32.989899,10.8940972 33.4083018,10.4184028 33.7589962,9.88020833 C34.1096907,9.34201389 34.3701073,8.77951389 34.5402462,8.19270833 C34.7103851,7.60590278 34.7954545,7.02083333 34.7954545,6.4375 C34.7954545,6.3125 34.7919823,6.21875 34.7850379,6.15625 C35.2225379,5.84375 35.5871212,5.46527778 35.8787879,5.02083333 L35.8787879,5.02083333 Z M38.5454545,3 L38.5454545,13 C38.5454545,13.8263889 38.2520518,14.5329861 37.6652462,15.1197917 C37.0784407,15.7065972 36.3718434,16 35.5454545,16 L25.5454545,16 C24.7190657,16 24.0124684,15.7065972 23.4256629,15.1197917 C22.8388573,14.5329861 22.5454545,13.8263889 22.5454545,13 L22.5454545,3 C22.5454545,2.17361111 22.8388573,1.46701389 23.4256629,0.880208333 C24.0124684,0.293402778 24.7190657,0 25.5454545,0 L35.5454545,0 C36.3718434,0 37.0784407,0.293402778 37.6652462,0.880208333 C38.2520518,1.46701389 38.5454545,2.17361111 38.5454545,3 L38.5454545,3 Z" id="Shape"></path>
            </g>
        </g>
    </g>
</svg>